HIERARCHY
ROOT hip
{
  OFFSET 0 0 0
  CHANNELS 6 Xposition Yposition Zposition Zrotation Yrotation Xrotation
  JOINT abdomen
  {
    OFFSET 0 20.6881 -0.73152
    CHANNELS 3 Zrotation Xrotation Yrotation
    JOINT chest
    {
      OFFSET 0 11.7043 -0.48768
      CHANNELS 3 Zrotation Xrotation Yrotation
      JOINT neck
      {
        OFFSET 0 22.1894 -2.19456
        CHANNELS 3 Zrotation Xrotation Yrotation
        JOINT head
        {
          OFFSET -0.24384 7.07133 1.2192
          CHANNELS 3 Zrotation Xrotation Yrotation
          JOINT leftEye
          {
            OFFSET 4.14528 8.04674 8.04672
            CHANNELS 3 Zrotation Xrotation Yrotation
            End Site
            {
              OFFSET 1 0 0
            }
          }
          JOINT rightEye
          {
            OFFSET -3.6576 8.04674 8.04672
            CHANNELS 3 Zrotation Xrotation Yrotation
            End Site
            {
              OFFSET 1 0 0
            }
          }
        }
      }
      JOINT rCollar
      {
        OFFSET -2.68224 19.2634 -4.8768
        CHANNELS 3 Zrotation Xrotation Yrotation
        JOINT rShldr
        {
          OFFSET -8.77824 -1.95073 1.46304
          CHANNELS 3 Zrotation Xrotation Yrotation
          JOINT rForeArm
          {
            OFFSET -28.1742 -1.7115 0.48768
            CHANNELS 3 Zrotation Xrotation Yrotation
            JOINT rHand
            {
              OFFSET -22.5879 0.773209 7.07136
              CHANNELS 3 Zrotation Xrotation Yrotation
              JOINT rThumb1
              {
                OFFSET -1.2192 -0.487915 3.41376
                CHANNELS 3 Zrotation Xrotation Yrotation
                JOINT rThumb2
                {
                  OFFSET -3.37035 -0.52449 3.41376
                  CHANNELS 3 Zrotation Xrotation Yrotation
                  End Site
                  {
                    OFFSET -1.78271 -1.18214 1.43049
                  }
                }
              }
              JOINT rIndex1
              {
                OFFSET -7.75947 0.938293 5.60832
                CHANNELS 3 Zrotation Xrotation Yrotation
                JOINT rIndex2
                {
                  OFFSET -2.54057 -0.884171 1.56538
                  CHANNELS 3 Zrotation Xrotation Yrotation
                  End Site
                  {
                    OFFSET -1.62519 -0.234802 1.16502
                  }
                }
              }
              JOINT rMid1
              {
                OFFSET -8.24714 1.18213 3.41376
                CHANNELS 3 Zrotation Xrotation Yrotation
                JOINT rMid2
                {
                  OFFSET -3.10165 -0.590103 1.0647
                  CHANNELS 3 Zrotation Xrotation Yrotation
                  End Site
                  {
                    OFFSET -2.48547 -0.328903 0.83742
                  }
                }
              }
              JOINT rRing1
              {
                OFFSET -8.82822 0.546677 1.51678
                CHANNELS 3 Zrotation Xrotation Yrotation
                JOINT rRing2
                {
                  OFFSET -2.60934 -0.819778 -0.0198488
                  CHANNELS 3 Zrotation Xrotation Yrotation
                  End Site
                  {
                    OFFSET -2.33842 -0.294052 0.168128
                  }
                }
              }
              JOINT rPinky1
              {
                OFFSET -8.27202 -0.0477905 -0.4584
                CHANNELS 3 Zrotation Xrotation Yrotation
                JOINT rPinky2
                {
                  OFFSET -1.82734 -0.647385 -0.700984
                  CHANNELS 3 Zrotation Xrotation Yrotation
                  End Site
                  {
                    OFFSET -1.69225 -0.51767 -0.607171
                  }
                }
              }
            }
          }
        }
      }
      JOINT lCollar
      {
        OFFSET 2.68224 19.2634 -4.8768
        CHANNELS 3 Zrotation Xrotation Yrotation
        JOINT lShldr
        {
          OFFSET 8.77824 -1.95073 1.46304
          CHANNELS 3 Zrotation Xrotation Yrotation
          JOINT lForeArm
          {
            OFFSET 28.1742 -1.7115 0.48768
            CHANNELS 3 Zrotation Xrotation Yrotation
            JOINT lHand
            {
              OFFSET 22.5879 0.773209 7.07136
              CHANNELS 3 Zrotation Xrotation Yrotation
              JOINT lThumb1
              {
                OFFSET 1.2192 -0.487915 3.41376
                CHANNELS 3 Zrotation Xrotation Yrotation
                JOINT lThumb2
                {
                  OFFSET 3.37035 -0.52449 3.41376
                  CHANNELS 3 Zrotation Xrotation Yrotation
                  End Site
                  {
                    OFFSET 1.78271 -1.18214 1.43049
                  }
                }
              }
              JOINT lIndex1
              {
                OFFSET 7.75947 0.938293 5.60832
                CHANNELS 3 Zrotation Xrotation Yrotation
                JOINT lIndex2
                {
                  OFFSET 2.54057 -0.884171 1.56538
                  CHANNELS 3 Zrotation Xrotation Yrotation
                  End Site
                  {
                    OFFSET 1.62519 -0.234802 1.16502
                  }
                }
              }
              JOINT lMid1
              {
                OFFSET 8.24714 1.18213 3.41376
                CHANNELS 3 Zrotation Xrotation Yrotation
                JOINT lMid2
                {
                  OFFSET 3.10165 -0.590103 1.0647
                  CHANNELS 3 Zrotation Xrotation Yrotation
                  End Site
                  {
                    OFFSET 2.48547 -0.328903 0.83742
                  }
                }
              }
              JOINT lRing1
              {
                OFFSET 8.82822 0.546677 1.51678
                CHANNELS 3 Zrotation Xrotation Yrotation
                JOINT lRing2
                {
                  OFFSET 2.60934 -0.819778 -0.0198488
                  CHANNELS 3 Zrotation Xrotation Yrotation
                  End Site
                  {
                    OFFSET 2.33842 -0.294052 0.168128
                  }
                }
              }
              JOINT lPinky1
              {
                OFFSET 8.27202 -0.0477905 -0.4584
                CHANNELS 3 Zrotation Xrotation Yrotation
                JOINT lPinky2
                {
                  OFFSET 1.82734 -0.647385 -0.700984
                  CHANNELS 3 Zrotation Xrotation Yrotation
                  End Site
                  {
                    OFFSET 1.69225 -0.51767 -0.607171
                  }
                }
              }
            }
          }
        }
      }
    }
  }
  JOINT rButtock
  {
    OFFSET -8.77824 4.35084 1.2192
    CHANNELS 3 Zrotation Xrotation Yrotation
    JOINT rThigh
    {
      OFFSET 0 -1.70687 -2.19456
      CHANNELS 3 Zrotation Xrotation Yrotation
      JOINT rShin
      {
        OFFSET 0 -36.8199 0.73152
        CHANNELS 3 Zrotation Xrotation Yrotation
        JOINT rFoot
        {
          OFFSET 0.73152 -45.1104 -5.12064
          CHANNELS 3 Zrotation Xrotation Yrotation
          End Site
          {
            OFFSET -1.1221 -3.69964 12.103
          }
        }
      }
    }
  }
  JOINT lButtock
  {
    OFFSET 8.77824 4.35084 1.2192
    CHANNELS 3 Zrotation Xrotation Yrotation
    JOINT lThigh
    {
      OFFSET 0 -1.70687 -2.19456
      CHANNELS 3 Zrotation Xrotation Yrotation
      JOINT lShin
      {
        OFFSET 0 -36.8199 0.73152
        CHANNELS 3 Zrotation Xrotation Yrotation
        JOINT lFoot
        {
          OFFSET -0.73152 -45.1104 -5.12064
          CHANNELS 3 Zrotation Xrotation Yrotation
          End Site
          {
            OFFSET 1.1221 -3.69964 12.103
          }
        }
      }
    }
  }
}
MOTION
Frames:	4
Frame Time:	0.00833333
-3.73531 84.2564 37.7189 0.0 0.0 0.0 -1.24151 -0.00398119 -0.0340789 -0.342494 -0.00249263 -0.0593272 -1.05004e-14 0.0 -4.96962e-17 -3.15757e-14 3.18055e-15 -7.76503e-17 -0.0 0.0 0.0 -0.0 0.0 0.0 -5.02092e-15 -1.96067e-17 1.98785e-16 -1.09782e-13 -5.03174e-16 0.0 -1.9061e-12 5.58784e-13 3.81667e-14 -2.18296e-11 -6.40931e-13 -1.43125e-13 -5.14924e-11 -1.76361e-13 -1.94014e-13 -8.89382e-11 -3.05333e-13 -3.29187e-13 -5.14892e-11 -1.77713e-13 -2.06736e-13 7.73091 5.47488 0.417314 -5.14921e-11 -1.76322e-13 -1.90833e-13 2.90554 0.965183 0.102902 -5.14869e-11 -1.76223e-13 -1.94809e-13 10.2786 0.731801 0.0259123 -5.14922e-11 -1.72545e-13 -1.90833e-13 2.22167 -0.733487 -0.20892 -5.21684e-15 -1.82478e-17 -1.98785e-16 -1.12121e-13 -1.30452e-16 -1.39149e-15 -1.91037e-12 -5.82638e-13 -3.18055e-15 -2.18431e-11 5.06951e-13 -7.95139e-14 -5.15198e-11 -1.66396e-13 -2.00375e-13 -8.89601e-11 -2.8625e-13 -3.36344e-13 -5.15238e-11 -1.66979e-13 -1.84472e-13 -7.73091 5.47488 -0.417314 -5.15191e-11 -1.66283e-13 -1.94014e-13 -2.90554 0.965183 -0.102902 -5.15252e-11 -1.66482e-13 -1.95604e-13 -10.2786 0.731801 -0.0259123 -5.15127e-11 -1.64991e-13 -2.03556e-13 -2.22167 -0.733487 0.20892 -2.03217e-16 0.0 -3.88251e-19 -0.453818 -1.92099 -0.00952748 -0.00915576 -2.07857 -0.0755536 -0.487476 3.99699 0.136656 2.03217e-16 0.0 3.88251e-19 -1.43726 -5.97115 0.129661 -0.00126434 5.25796 -0.0454148 0.507803 0.710743 -0.0722726
-5.27577 83.8854 37.1674 -2.2421 -2.0091 0.5003 -0.727896 -0.408726 0.470877 -0.161408 -0.697977 0.0942377 0.0524527 1.38229 -0.312342 0.562973 0.894365 -0.645139 -0.0 0.0 0.0 -0.0 0.0 0.0 -5.46176e-15 -3.02692e-15 -1.08547e-14 23.1129 7.29156 -4.46368 -7.12942 -4.14786 9.97327 0.00131267 0.806024 0.113239 -2.61436e-11 -7.17212e-11 -5.35009e-11 -4.53581e-11 -1.23902e-10 -9.28265e-11 -2.61375e-11 -7.17213e-11 -5.35156e-11 7.73091 5.47488 0.417314 -2.61439e-11 -7.17214e-11 -5.34986e-11 2.90554 0.965183 0.102902 -2.61377e-11 -7.17209e-11 -5.35021e-11 10.2786 0.731801 0.0259123 -2.61437e-11 -7.17181e-11 -5.34949e-11 2.22167 -0.733487 -0.20892 -5.59368e-15 -3.02594e-15 -1.125e-14 -23.4943 7.23267 2.97236 5.8407 -3.08302 -8.60836 -0.01508 2.72452 -0.381344 -4.91514e-11 -2.62159e-11 1.24651e-11 -8.47608e-11 -4.52056e-11 2.18843e-11 -4.91552e-11 -2.6215e-11 1.24813e-11 -7.73091 5.47488 -0.417314 -4.915e-11 -2.62151e-11 1.24706e-11 -2.90554 0.965183 -0.102902 -4.91586e-11 -2.62148e-11 1.24701e-11 -10.2786 0.731801 -0.0259123 -4.9146e-11 -2.62134e-11 1.24622e-11 -2.22167 -0.733487 0.20892 -2.03217e-16 0.0 -3.88251e-19 -6.23354 -2.20125 -0.0107302 -0.00641234 -1.70608 -0.0556278 -0.239817 3.90274 0.0988753 2.03217e-16 0.0 3.88251e-19 1.14509 -6.34215 -2.20824 -0.0175403 9.82286 -0.177792 0.796054 -4.97829 4.16858
-5.2694 83.8854 37.1658 -2.215 -2.0175 0.5049 -0.176325 -0.835435 1.00538 0.0343216 -1.43297 0.256813 0.123446 2.84218 -0.64361 1.18118 1.83906 -1.32847 -0.0 0.0 0.0 -0.0 0.0 0.0 -5.85532e-15 -6.31965e-15 -2.29907e-14 48.8153 14.843 -9.42561 -13.1137 -8.1101 20.675 -0.000776896 1.66519 0.234021 5.45052e-12 -1.60197e-10 -1.17368e-10 9.00393e-12 -2.76788e-10 -2.03671e-10 5.45972e-12 -1.60195e-10 -1.17385e-10 7.73091 5.47488 0.417314 5.44942e-12 -1.60197e-10 -1.17367e-10 2.90554 0.965183 0.102902 5.45668e-12 -1.60196e-10 -1.1737e-10 10.2786 0.731801 0.0259123 5.44987e-12 -1.60194e-10 -1.17359e-10 2.22167 -0.733487 -0.20892 -5.91685e-15 -6.31911e-15 -2.3382e-14 -49.171 14.8126 6.27372 11.0182 -6.10934 -17.786 0.00858776 5.60526 -0.787486 -5.28202e-11 -6.20956e-11 2.76315e-11 -9.09889e-11 -1.07088e-10 4.85356e-11 -5.28239e-11 -6.2093e-11 2.76482e-11 -7.73091 5.47488 -0.417314 -5.28182e-11 -6.2094e-11 2.7636e-11 -2.90554 0.965183 -0.102902 -5.28295e-11 -6.20931e-11 2.76367e-11 -10.2786 0.731801 -0.0259123 -5.28169e-11 -6.20919e-11 2.76289e-11 -2.22167 -0.733487 0.20892 -2.03217e-16 0.0 -3.88251e-19 -12.3436 -2.49754 -0.0120019 -0.0037938 -1.31228 -0.0345735 0.0218956 3.8031 0.0589396 2.03217e-16 0.0 3.88251e-19 3.8434 -6.72165 -4.68228 -0.0110597 14.6487 -0.32307 2.02754 -10.8931 8.77762
-5.27119 83.8857 37.1644 -2.2163 -2.0338 0.4971 0.32074 -1.21785 1.48109 0.211954 -2.0889 0.401614 0.20267 4.14639 -0.939211 1.74938 2.68173 -1.9373 -0.0 0.0 0.0 -0.0 0.0 0.0 -6.34345e-15 -9.04156e-15 -3.29618e-14 72.9233 21.3244 -14.2787 -17.2103 -10.9364 30.4505 -0.00562732 2.41803 0.339987 2.45541e-11 -2.14811e-10 -1.60115e-10 4.18022e-11 -3.71096e-10 -2.77821e-10 2.45659e-11 -2.14808e-10 -1.60133e-10 7.73091 5.47488 0.417314 2.45524e-11 -2.14812e-10 -1.60114e-10 2.90554 0.965183 0.102902 2.45606e-11 -2.1481e-10 -1.60117e-10 10.2786 0.731801 0.0259123 2.45532e-11 -2.14809e-10 -1.60103e-10 2.22167 -0.733487 -0.20892 -6.34735e-15 -9.04133e-15 -3.33523e-14 -72.8661 21.4556 9.51064 14.8226 -8.41554 -26.0891 0.0645042 8.17211 -1.15446 -4.44144e-11 -7.83149e-11 3.77962e-11 -7.63622e-11 -1.35044e-10 6.63255e-11 -4.4418e-11 -7.8311e-11 3.7813e-11 -7.73091 5.47488 -0.417314 -4.44118e-11 -7.83127e-11 3.77999e-11 -2.90554 0.965183 -0.102902 -4.44253e-11 -7.83113e-11 3.78015e-11 -10.2786 0.731801 -0.0259123 -4.44128e-11 -7.83103e-11 3.77937e-11 -2.22167 -0.733487 0.20892 -2.03217e-16 0.0 -3.88251e-19 -17.793 -2.76177 -0.0131377 -0.00170274 -0.961094 -0.0158039 0.255127 3.71424 0.0233396 2.03217e-16 0.0 3.88251e-19 6.21902 -7.04733 -6.8944 0.016653 18.9522 -0.460048 3.9606 -15.99 13.1191
